<svg width="1600" height="1100" viewBox="0 0 1600 1100" fill="none" xmlns="http://www.w3.org/2000/svg">
  <rect width="1600" height="1100" rx="48" fill="#F5EEE5"/>
  <rect x="72" y="72" width="1456" height="956" rx="42" fill="url(#bg)"/>
  <ellipse cx="1260" cy="240" rx="200" ry="140" fill="#E9D4C2" fill-opacity="0.8"/>
  <ellipse cx="320" cy="830" rx="260" ry="180" fill="#DCEBF1" fill-opacity="0.8"/>
  <g transform="rotate(-7 810 510)">
    <rect x="430" y="300" width="740" height="320" rx="34" fill="#5A3022"/>
    <rect x="452" y="322" width="696" height="276" rx="26" fill="#7A4030"/>
    <rect x="500" y="380" width="600" height="160" rx="20" fill="#3C221B"/>
    <text x="800" y="470" text-anchor="middle" fill="#F5EEE5" font-family="Georgia, serif" font-size="110" font-weight="700">Tim Tam</text>
    <text x="800" y="540" text-anchor="middle" fill="#E8CBA8" font-family="'Helvetica Neue', Arial, sans-serif" font-size="36" letter-spacing="10">CLASSIC CHOCOLATE BISCUITS</text>
  </g>
  <g transform="translate(900 650) rotate(-8)">
    <rect x="0" y="0" width="170" height="62" rx="31" fill="#EFE4D5"/>
    <text x="85" y="40" text-anchor="middle" fill="#6E5446" font-family="'Helvetica Neue', Arial, sans-serif" font-size="28" font-weight="600">supermarket pick</text>
  </g>
  <g transform="translate(330 700) rotate(10)">
    <rect x="0" y="0" width="230" height="72" rx="36" fill="#D9EAF1"/>
    <text x="115" y="46" text-anchor="middle" fill="#44697A" font-family="'Helvetica Neue', Arial, sans-serif" font-size="30" font-weight="700">easy gift</text>
  </g>
  <defs>
    <linearGradient id="bg" x1="160" y1="140" x2="1420" y2="980" gradientUnits="userSpaceOnUse">
      <stop stop-color="#FAF5EF"/>
      <stop offset="1" stop-color="#F0E3D5"/>
    </linearGradient>
  </defs>
</svg>
